<svg xmlns="http://www.w3.org/2000/svg" width="900" height="480" viewBox="0 0 900 480" role="img" aria-labelledby="title desc">
  <title id="title">3SUM Runtime Comparison</title>
  <desc id="desc">Log-scale runtime comparison of convolution and quadratic solvers on generated inputs.</desc>
  <rect width="900" height="480" fill="#ffffff"/>
  <text x="80" y="28" font-family="Arial, sans-serif" font-size="20" font-weight="700" fill="#1f2937">3SUM runtime comparison</text>
  <text x="80" y="52" font-family="Arial, sans-serif" font-size="13" fill="#4b5563">Release build, median of timed runs, generated mixed-sign inputs, y-axis is log scale in milliseconds</text>

  <line x1="80" y1="380" x2="840" y2="380" stroke="#111827" stroke-width="1.5"/>
  <line x1="80" y1="40" x2="80" y2="380" stroke="#111827" stroke-width="1.5"/>

  <g font-family="Arial, sans-serif" font-size="12" fill="#4b5563">
    <line x1="80" y1="380" x2="840" y2="380" stroke="#e5e7eb"/>
    <text x="46" y="384">1</text>
    <line x1="80" y1="266.7" x2="840" y2="266.7" stroke="#e5e7eb"/>
    <text x="39" y="270.7">10</text>
    <line x1="80" y1="153.3" x2="840" y2="153.3" stroke="#e5e7eb"/>
    <text x="32" y="157.3">100</text>
    <line x1="80" y1="40" x2="840" y2="40" stroke="#e5e7eb"/>
    <text x="25" y="44">1000</text>
    <text x="18" y="210" transform="rotate(-90 18 210)">milliseconds</text>
  </g>

  <g font-family="Arial, sans-serif" font-size="12" fill="#374151" text-anchor="middle">
    <text x="150" y="414">n=2k</text>
    <text x="150" y="432">U=3997</text>
    <text x="350" y="414">n=10k</text>
    <text x="350" y="432">U=3997</text>
    <text x="550" y="414">n=50k</text>
    <text x="550" y="432">U=3997</text>
    <text x="750" y="414">n=50k</text>
    <text x="750" y="432">U=99997</text>
  </g>

  <polyline points="150,322.1 350,332.3 550,337.5 750,150.9" fill="none" stroke="#2563eb" stroke-width="3"/>
  <polyline points="150,353.9 350,277.6 550,207.5 750,60.5" fill="none" stroke="#dc2626" stroke-width="3"/>

  <g fill="#2563eb" stroke="#ffffff" stroke-width="2">
    <circle cx="150" cy="322.1" r="5"/>
    <circle cx="350" cy="332.3" r="5"/>
    <circle cx="550" cy="337.5" r="5"/>
    <circle cx="750" cy="150.9" r="5"/>
  </g>

  <g fill="#dc2626" stroke="#ffffff" stroke-width="2">
    <circle cx="150" cy="353.9" r="5"/>
    <circle cx="350" cy="277.6" r="5"/>
    <circle cx="550" cy="207.5" r="5"/>
    <circle cx="750" cy="60.5" r="5"/>
  </g>

  <g font-family="Arial, sans-serif" font-size="12">
    <rect x="630" y="78" width="14" height="4" fill="#2563eb"/>
    <text x="652" y="84" fill="#374151">convolution</text>
    <rect x="630" y="102" width="14" height="4" fill="#dc2626"/>
    <text x="652" y="108" fill="#374151">quadratic baseline</text>
  </g>
</svg>
